# xmcd CD database file
#
# Track frame offsets:
#	150
#	13529
#	26589
#	39024
#	51713
#	70893
#	83496
#	96737
#	107926
#	121467
#	133420
#	145622
#	160242
#	169393
#	209025
#	236175
#	252198
#	277100
#
# Disc length: 4039 seconds
#
# Revision: 1
# Processed by: cddbd v1.5.2PL0 Copyright (c) Steve Scherf et al.
# Submitted via: CDex 1.70beta2
#
DISCID=140fc512
DTITLE=Nina Simone - The Real... 1
DYEAR=2012
DGENRE=Jazz
TTITLE0=Ain't Got No - I Got Life
TTITLE1=In The Dark
TTITLE2=Do I Move You?
TTITLE3=Since I Fell For You
TTITLE4=My Man's Gone Now
TTITLE5=Go To Hell
TTITLE6=It Be's That Way Sometime
TTITLE7=Turn Me On
TTITLE8=Do What You Gotta Do
TTITLE9=To Love Somebody
TTITLE10=In The Morning
TTITLE11=I Can't See Nobody
TTITLE12=The Turning Point
TTITLE13=Westwind [Live]
TTITLE14=Sunday In Savannah [Live]
TTITLE15=Backlash Blues [Live]
TTITLE16=Mississippi Goddam [Live]
TTITLE17=Why? (The King Of Love Is Dead) [Live]
EXTD=YEAR: 2012
EXTT0=
EXTT1=
EXTT2=
EXTT3=
EXTT4=
EXTT5=
EXTT6=
EXTT7=
EXTT8=
EXTT9=
EXTT10=
EXTT11=
EXTT12=
EXTT13=
EXTT14=
EXTT15=
EXTT16=
EXTT17=
PLAYORDER=
